<svg id="Layer_1" data-name="Layer 1" xmlns="http://www.w3.org/2000/svg" viewBox="0 0 97.09 97.04"><defs><style>.cls-1{fill:#fff;}</style></defs><title>facebook</title><path class="cls-1" d="M2.16,51.27q0-18.23,0-36.47a12,12,0,0,1,9.22-12,12.77,12.77,0,0,1,3-.35q36.35,0,72.7,0A12,12,0,0,1,99.24,14.55q0,36.35,0,72.7A12,12,0,0,1,87,99.44H14.66c-7.35,0-12.49-5.15-12.5-12.54Q2.15,69.09,2.16,51.27ZM41.61,88.9h15.3V55.12H68.2L70.37,41H56.88c0-3.28,0-6.43,0-9.58a7,7,0,0,1,7.65-7c2.06.12,4.13,0,6.16,0,.08-.16.15-.22.15-.29,0-3.68,0-7.36,0-11,0-.28-.54-.75-.87-.78-2.9-.31-5.8-.62-8.71-.78a20.11,20.11,0,0,0-11,2.17c-5.8,3.18-8.19,8.43-8.56,14.73-.22,3.75-.06,7.51-.08,11.27,0,.42,0,.84-.07,1.39H29.37V55H41.61Z" transform="translate(-2.16 -2.4)"/></svg>