<svg id="Layer_1" data-name="Layer 1" xmlns="http://www.w3.org/2000/svg" viewBox="0 0 97.08 97.04"><defs><style>.cls-1{fill:#fff;}</style></defs><title>instagram</title><path class="cls-1" d="M50.71,99.44H14.6C7.33,99.44,2.17,94.28,2.16,87q0-24.71,0-49.43,0-11.22,0-22.43C2.16,7.52,7.29,2.4,14.88,2.4h72A12,12,0,0,1,99.24,14.73q0,36.17,0,72.34A12,12,0,0,1,86.82,99.44Zm39.45-49.2c0-5.76.19-11.52,0-17.27-.5-12.15-11-22-23.18-22H35.15A23.54,23.54,0,0,0,11.68,34.49q0,15.71,0,31.43A23.45,23.45,0,0,0,34.32,89.4c10.43.24,20.87.08,31.31.07a36.7,36.7,0,0,0,3.83-.2c11.07-1.17,20.2-10.66,20.66-21.75C90.35,61.77,90.16,56,90.16,50.25Z" transform="translate(-2.16 -2.4)"/><path class="cls-1" d="M82.71,50.25c0,5.68.2,11.36,0,17A15.79,15.79,0,0,1,67.39,82q-16.43.2-32.87,0A16,16,0,0,1,19.14,66.32q-.11-16.07,0-32.15a16.11,16.11,0,0,1,16-15.73H66.32A16.13,16.13,0,0,1,82.8,34.89c0,5.12,0,10.24,0,15.36ZM32,50.16A19.34,19.34,0,1,0,51.31,30.8,19.31,19.31,0,0,0,32,50.16ZM67.12,29.63a4.61,4.61,0,0,0,4.66,4.61,4.67,4.67,0,0,0,4.59-4.58A4.72,4.72,0,0,0,71.75,25,4.64,4.64,0,0,0,67.12,29.63Z" transform="translate(-2.16 -2.4)"/><path class="cls-1" d="M51.27,37.84A12.35,12.35,0,0,1,63.68,50.15c0,6.51-5.66,12.46-11.88,12.41C44.56,62.5,39,57.06,39,50.1A12.28,12.28,0,0,1,51.27,37.84Z" transform="translate(-2.16 -2.4)"/></svg>