<svg id="Layer_1" data-name="Layer 1" xmlns="http://www.w3.org/2000/svg" viewBox="0 0 97.09 97.04"><defs><style>.cls-1{fill:#fff;}</style></defs><title>twitter</title><path class="cls-1" d="M50.7,99.44H14.48A11.94,11.94,0,0,1,2.17,87.2q0-36.29,0-72.58A12,12,0,0,1,14.53,2.4H86.86A12,12,0,0,1,99.24,14.74q0,36.17,0,72.34A12,12,0,0,1,86.81,99.44Zm38.42-10L58.42,44.77,86.63,12c-2.12,0-3.92,0-5.71,0a2.08,2.08,0,0,0-1.82.86q-6.85,8-13.73,16L55.43,40.37l-1.07-1.53Q45.46,25.9,36.57,13a2,2,0,0,0-1.94-1c-6.68,0-13.36,0-20,0H13.21c.32.49.49.76.67,1Q28,33.54,42.13,54.09c.44.64.58,1,0,1.73Q28,72.1,14,88.45c-.24.28-.45.59-.78,1,2.05,0,3.89.06,5.72,0a2.47,2.47,0,0,0,1.59-.73Q31.2,76.44,41.76,64.09l4-4.64c.34.48.6.83.85,1.19q9.63,14,19.24,27.95a1.73,1.73,0,0,0,1.63.91c6.84,0,13.68,0,20.52,0C88.31,89.48,88.61,89.45,89.13,89.42Z" transform="translate(-2.15 -2.4)"/><path class="cls-1" d="M22.42,17c3.39,0,6.5,0,9.61,0,.39,0,.87.48,1.14.86q8.54,12.17,17,24.37L79,83.5c.22.32.43.65.78,1.18a44,44,0,0,0-6.09.05c-3.06.44-4.72-.87-6.42-3.33C52.69,60.32,38,39.35,23.31,18.35Z" transform="translate(-2.15 -2.4)"/></svg>