<svg id="Layer_1" data-name="Layer 1" xmlns="http://www.w3.org/2000/svg" viewBox="0 0 97.09 97.04"><defs><style>.cls-1{fill:#fff;}</style></defs><title>youtube</title><path class="cls-1" d="M50.71,99.44H14.48A11.94,11.94,0,0,1,2.17,87.2q0-36.29,0-72.58A12,12,0,0,1,14.52,2.4H87A12,12,0,0,1,99.24,14.61q0,36.29,0,72.58a12,12,0,0,1-12.3,12.25ZM51.11,24v0c-6.88,0-13.75-.06-20.63,0a40.51,40.51,0,0,0-7,.75c-6.55,1.26-9.55,4.48-9.94,11.13-.34,5.7-.29,11.42-.3,17.14,0,3.71,0,7.44.36,11.13.56,6.39,4,10.53,10.19,12.12a36.53,36.53,0,0,0,8.64,1.08c12.12.12,24.23.09,36.35,0a57.81,57.81,0,0,0,8.71-.62c5.76-.91,9.62-4.15,10.82-10a39.09,39.09,0,0,0,.86-7.12c.12-6.48.08-13,0-19.43a42.59,42.59,0,0,0-.56-6.2c-.74-4.64-3.39-7.72-8-8.81A36.15,36.15,0,0,0,73.06,24C65.75,23.87,58.43,24,51.11,24Z" transform="translate(-2.15 -2.4)"/><path class="cls-1" d="M42.48,50.25q0-3.54,0-7.07a10,10,0,0,1,.05-1.2c.25-2.05,1.76-3,3.6-2Q54,43.92,61.76,48a2.38,2.38,0,0,1,0,4.45Q54,56.65,46.19,60.63c-1.89,1-3.53,0-3.63-2.11-.13-2.75,0-5.51,0-8.27Z" transform="translate(-2.15 -2.4)"/></svg>