<?xml version="1.0" encoding="UTF-8"?>
<!DOCTYPE svg PUBLIC "-//W3C//DTD SVG 1.1//EN" "http://www.w3.org/Graphics/SVG/1.1/DTD/svg11.dtd">
<svg xmlns="http://www.w3.org/2000/svg" version="1.1" width="2560px" height="909px" style="shape-rendering:geometricPrecision; text-rendering:geometricPrecision; image-rendering:optimizeQuality; fill-rule:evenodd; clip-rule:evenodd" xmlns:xlink="http://www.w3.org/1999/xlink">
<g><path style="opacity:0.996" fill="#000000" d="M 1234.5,59.5 C 1288.18,58.7227 1341.51,62.556 1394.5,71C 1443.77,78.4854 1488.11,97.152 1527.5,127C 1565.09,160.334 1588.92,201.834 1599,251.5C 1604.19,275.561 1607.19,299.894 1608,324.5C 1608.67,411.167 1608.67,497.833 1608,584.5C 1607.13,627.836 1598.47,669.502 1582,709.5C 1559.72,757.784 1524.22,792.617 1475.5,814C 1439.58,828.981 1402.24,838.648 1363.5,843C 1277.98,852.613 1192.65,851.28 1107.5,839C 969.315,817.146 896.815,736.313 890,596.5C 889.333,501.833 889.333,407.167 890,312.5C 891.752,267.395 902.752,224.728 923,184.5C 946.446,142.722 980.28,112.556 1024.5,94C 1073.97,74.6384 1125.31,63.9718 1178.5,62C 1197.33,61.1742 1215.99,60.3408 1234.5,59.5 Z M 1229.5,240.5 C 1254.87,240.335 1280.2,241.168 1305.5,243C 1326.16,243.998 1345.16,249.998 1362.5,261C 1376.63,273.41 1385.46,288.91 1389,307.5C 1391.98,322.352 1393.65,337.352 1394,352.5C 1394.67,420.167 1394.67,487.833 1394,555.5C 1394.02,576.725 1390.68,597.391 1384,617.5C 1374.38,642.115 1356.55,656.948 1330.5,662C 1303.56,666.755 1276.39,668.922 1249,668.5C 1233.49,668.24 1217.99,667.74 1202.5,667C 1180.51,666.473 1159.84,661.14 1140.5,651C 1124.16,638.829 1113.99,622.663 1110,602.5C 1106.79,588.337 1104.79,574.004 1104,559.5C 1103.33,489.5 1103.33,419.5 1104,349.5C 1104.29,323.713 1110.29,299.379 1122,276.5C 1135.73,257.997 1154.23,247.497 1177.5,245C 1194.9,242.505 1212.24,241.005 1229.5,240.5 Z"/></g>
<g><path style="opacity:0.995" fill="#000000" d="M 2028.5,59.5 C 2065.18,59.6064 2101.85,60.4398 2138.5,62C 2170.66,63.4032 2202.32,68.0699 2233.5,76C 2298.02,93.8508 2338.18,135.351 2354,200.5C 2364.89,248.211 2369.39,296.545 2367.5,345.5C 2296.17,345.5 2224.83,345.5 2153.5,345.5C 2156.52,320.485 2152.36,296.818 2141,274.5C 2131.07,260.268 2117.57,251.101 2100.5,247C 2055.9,238.82 2011.23,238.486 1966.5,246C 1933.25,251.68 1912.75,270.847 1905,303.5C 1901.14,322.298 1899.14,341.298 1899,360.5C 1898.33,421.833 1898.33,483.167 1899,544.5C 1899.14,564.361 1901.14,584.028 1905,603.5C 1910.85,631.021 1927.02,649.521 1953.5,659C 1978.83,666.017 2004.67,669.184 2031,668.5C 2050.56,668.289 2070.06,667.122 2089.5,665C 2121.3,661.846 2141.47,645.013 2150,614.5C 2153.97,592.687 2155.47,570.687 2154.5,548.5C 2225.83,548.5 2297.17,548.5 2368.5,548.5C 2369.26,585.569 2368.09,622.569 2365,659.5C 2354.66,745.173 2308.82,802.339 2227.5,831C 2194.63,841.312 2160.96,846.978 2126.5,848C 2074.17,849.936 2021.83,849.936 1969.5,848C 1926.17,847.223 1883.5,841.556 1841.5,831C 1765.88,809.046 1718.38,759.879 1699,683.5C 1690.65,650.353 1685.98,616.687 1685,582.5C 1684.05,491.488 1684.38,400.488 1686,309.5C 1688.16,271.21 1696.16,234.21 1710,198.5C 1731.08,149.751 1765.92,114.585 1814.5,93C 1859.48,75.3372 1906.14,65.3372 1954.5,63C 1979.31,61.4315 2003.98,60.2648 2028.5,59.5 Z"/></g>
<g><path style="opacity:0.995" fill="#000000" d="M 550.5,66.5 C 639.833,66.5 729.167,66.5 818.5,66.5C 818.667,325.167 818.5,583.834 818,842.5C 783.571,843.165 749.071,843.498 714.5,843.5C 679.929,843.498 645.429,843.165 611,842.5C 610.833,643.832 610.333,445.166 609.5,246.5C 587.558,246.253 566.225,249.753 545.5,257C 526.155,266.678 510.988,280.845 500,299.5C 490.823,315.852 482.156,332.519 474,349.5C 398.607,513.953 322.94,678.286 247,842.5C 211.571,843.165 176.071,843.498 140.5,843.5C 104.417,843.661 68.4167,843.161 32.5,842C 119.05,655.687 205.217,469.187 291,282.5C 309.544,242.393 330.877,204.059 355,167.5C 391.309,114.255 441.476,82.4221 505.5,72C 520.6,69.7599 535.6,67.9266 550.5,66.5 Z"/></g>
<g><path style="opacity:0.929" fill="#000000" d="M 2464.5,66.5 C 2497.48,63.2297 2521.31,76.2297 2536,105.5C 2546.7,136.707 2539.54,162.874 2514.5,184C 2489.41,200.262 2464.07,200.595 2438.5,185C 2412.1,163.572 2404.6,136.738 2416,104.5C 2426.19,84.1343 2442.36,71.4677 2464.5,66.5 Z M 2470.5,77.5 C 2502.79,77.7205 2521.62,93.7205 2527,125.5C 2528.78,148.101 2520.28,165.601 2501.5,178C 2474.29,190.294 2451.45,184.794 2433,161.5C 2420.89,139.176 2421.89,117.509 2436,96.5C 2445.35,86.0783 2456.85,79.7449 2470.5,77.5 Z M 2462.5,103.5 C 2470.55,103.225 2478.55,103.725 2486.5,105C 2493.9,109.144 2495.4,114.977 2491,122.5C 2489.58,123.46 2488.08,124.293 2486.5,125C 2478.55,126.223 2470.55,126.723 2462.5,126.5C 2462.5,118.833 2462.5,111.167 2462.5,103.5 Z"/></g>
<g><path style="opacity:0.929" fill="#000000" d="M 2450.5,93.5 C 2464.23,93.0734 2477.89,93.5734 2491.5,95C 2503.93,99.568 2508.43,108.401 2505,121.5C 2502.44,130.224 2496.6,135.224 2487.5,136.5C 2494.04,147.085 2500.71,157.585 2507.5,168C 2502.8,168.828 2498.13,168.662 2493.5,167.5C 2487.5,157.5 2481.5,147.5 2475.5,137.5C 2471.22,136.508 2466.88,136.174 2462.5,136.5C 2462.5,147.167 2462.5,157.833 2462.5,168.5C 2458.5,168.5 2454.5,168.5 2450.5,168.5C 2450.5,143.5 2450.5,118.5 2450.5,93.5 Z M 2462.5,103.5 C 2462.5,111.167 2462.5,118.833 2462.5,126.5C 2470.55,126.723 2478.55,126.223 2486.5,125C 2488.08,124.293 2489.58,123.46 2491,122.5C 2495.4,114.977 2493.9,109.144 2486.5,105C 2478.55,103.725 2470.55,103.225 2462.5,103.5 Z"/></g>
</svg>
