<svg id="Layer_1" data-name="Layer 1" xmlns="http://www.w3.org/2000/svg" viewBox="0 0 97.1 97.04"><defs><style>.cls-1{fill:#fff;}</style></defs><title>linkedin</title><path class="cls-1" d="M50.76,99.44H14.42A11.89,11.89,0,0,1,2.18,87.38q-.07-36.47,0-72.94a12,12,0,0,1,12.29-12H86.92A12,12,0,0,1,99.24,14.68q0,36.23,0,72.46A12,12,0,0,1,86.87,99.44Zm5-10.07V87.86c0-8.32,0-16.63,0-25a35.35,35.35,0,0,1,.29-4.42c.71-5.45,3.55-8.15,8.92-8.55,4.25-.32,7.36,1.82,8.3,6A30,30,0,0,1,74,62.2C74,70.8,74,79.4,74,88v1.41H90.36v-1c0-9.88.1-19.75-.06-29.63a53.26,53.26,0,0,0-1.22-10.32C87.93,43.08,85,38.86,79.61,37a28.49,28.49,0,0,0-6.77-1.39c-7.25-.66-13.19,1.75-17.35,7.94a3.59,3.59,0,0,1-.48.42V37H39.4v52.4ZM29.12,37H12.78V89.4H29.12ZM30.4,20.26a9.5,9.5,0,1,0-9.53,9.46A9.39,9.39,0,0,0,30.4,20.26Z" transform="translate(-2.14 -2.4)"/></svg>